<svg width="66" height="66" viewBox="0 0 66 66" fill="none" xmlns="http://www.w3.org/2000/svg">
<path d="M65.0349 1.50025C65.0349 0.671819 64.3633 0.000246613 63.5349 0.000245559L50.0349 0.000246065C49.2065 0.000246065 48.5349 0.671819 48.5349 1.50025C48.5349 2.32867 49.2065 3.00025 50.0349 3.00025L62.0349 3.00025L62.0349 15.0002C62.0349 15.8287 62.7065 16.5002 63.5349 16.5002C64.3633 16.5002 65.0349 15.8287 65.0349 15.0002L65.0349 1.50025ZM36.4609 28.5742L37.5216 29.6349L64.5956 2.56091L63.5349 1.50025L62.4742 0.439586L35.4003 27.5136L36.4609 28.5742Z" fill="white"/>
<path d="M0.0354018 1.53931C0.0354029 0.710882 0.706976 0.0393091 1.5354 0.0393081L15.0354 0.0393086C15.8638 0.0393086 16.5354 0.710881 16.5354 1.53931C16.5354 2.36774 15.8638 3.03931 15.0354 3.03931L3.0354 3.03931L3.0354 15.0393C3.0354 15.8677 2.36383 16.5393 1.5354 16.5393C0.706975 16.5393 0.0354023 15.8677 0.0354023 15.0393L0.0354018 1.53931ZM28.6094 28.6133L27.5487 29.6739L0.474742 2.59997L1.5354 1.53931L2.59606 0.478649L29.67 27.5526L28.6094 28.6133Z" fill="white"/>
<path d="M63.574 65.113C64.4024 65.113 65.074 64.4415 65.074 63.613L65.074 50.113C65.074 49.2846 64.4024 48.613 63.574 48.613C62.7455 48.613 62.074 49.2846 62.074 50.113L62.074 62.113L50.074 62.113C49.2455 62.113 48.574 62.7846 48.574 63.613C48.574 64.4415 49.2455 65.113 50.074 65.113L63.574 65.113ZM36.5 36.5391L35.4393 37.5997L62.5133 64.6737L63.574 63.613L64.6346 62.5524L37.5607 35.4784L36.5 36.5391Z" fill="white"/>
<path d="M1.49634 65.1521C0.667913 65.1521 -0.00365964 64.4805 -0.00366069 63.6521L-0.00366019 50.1521C-0.00366019 49.3237 0.667912 48.6521 1.49634 48.6521C2.32477 48.6521 2.99634 49.3237 2.99634 50.1521L2.99634 62.1521L14.9963 62.1521C15.8248 62.1521 16.4963 62.8237 16.4963 63.6521C16.4963 64.4805 15.8248 65.1521 14.9963 65.1521L1.49634 65.1521ZM28.5703 36.5781L29.631 37.6388L2.557 64.7128L1.49634 63.6521L0.43568 62.5914L27.5097 35.5175L28.5703 36.5781Z" fill="white"/>
</svg>
