<svg width="125" height="87" viewBox="0 0 125 87" fill="none" xmlns="http://www.w3.org/2000/svg">
<path d="M111.417 43.1607L116.784 40.7213C119.118 39.6602 121.088 37.9346 122.447 35.7602C123.743 33.6873 124.429 31.292 124.429 28.8475V25.2229C124.429 23.1369 123.778 21.1031 122.565 19.4056C121.146 17.4191 119.05 16.0197 116.671 15.4707L112.872 14.5938C110.862 14.1301 108.757 14.2704 106.826 14.9945C104.54 15.8517 102.621 17.4829 101.41 19.6026L101.135 20.0846C100.412 21.35 100.031 22.7821 100.031 24.2396V24.778C100.031 26.6544 100.777 28.4538 102.103 29.7806C102.88 30.5572 103.827 31.1424 104.869 31.4897L106.621 32.0738C107.643 32.4144 108.713 32.5881 109.791 32.5881H111.417" stroke="#FCFCFC"/>
<path d="M69.9405 29.3365L75.3072 26.8971C77.6415 25.836 79.6113 24.1104 80.9704 21.936C82.2659 19.863 82.9529 17.4677 82.9529 15.0232V11.3987C82.9529 9.31271 82.3011 7.27883 81.0887 5.58138C79.6697 3.59485 77.5736 2.19544 75.1949 1.6465L71.395 0.769595C69.3856 0.305899 67.2804 0.446187 65.3495 1.17026C63.0636 2.02749 61.1448 3.6587 59.9335 5.77843L59.6581 6.26035C58.935 7.52574 58.5547 8.95793 58.5547 10.4153V10.9538C58.5547 12.8301 59.3001 14.6296 60.6268 15.9564C61.4035 16.733 62.3502 17.3182 63.3922 17.6655L65.1443 18.2495C66.1664 18.5902 67.2367 18.7639 68.314 18.7639H69.9405" stroke="#FCFCFC"/>
<path d="M92.714 56.9878L98.0806 59.4272C100.415 60.4882 102.385 62.2138 103.744 64.3883C105.039 66.4612 105.726 68.8565 105.726 71.301V74.9255C105.726 77.0115 105.075 79.0454 103.862 80.7428C102.443 82.7294 100.347 84.1288 97.9683 84.6777L94.1684 85.5546C92.1591 86.0183 90.0538 85.878 88.123 85.154C85.837 84.2967 83.9182 82.6655 82.7069 80.5458L82.4315 80.0639C81.7085 78.7985 81.3281 77.3663 81.3281 75.9089V75.3704C81.3281 73.4941 82.0735 71.6946 83.4003 70.3678C84.1769 69.5912 85.1237 69.0061 86.1656 68.6587L87.9178 68.0747C88.9398 67.734 90.0101 67.5603 91.0874 67.5603H92.714" stroke="#FCFCFC"/>
<rect x="35.1562" y="10.8164" width="11.0124" height="66.315" stroke="#FCFCFC" stroke-width="2"/>
<line x1="0.5" y1="28.8359" x2="28.7779" y2="28.8359" stroke="#FCFCFC" stroke-linecap="round"/>
<line x1="0.5" y1="43.4766" x2="28.7779" y2="43.4766" stroke="#FCFCFC" stroke-linecap="round"/>
<path d="M52.8594 43.1602H110.602" stroke="#FCFCFC" stroke-linecap="round"/>
<path d="M53.6797 29.3359L69.9452 29.3359" stroke="#FCFCFC" stroke-linecap="round"/>
<path d="M53.6797 56.9883L92.7168 56.9883" stroke="#FCFCFC" stroke-linecap="round"/>
<line x1="0.5" y1="56.4883" x2="28.7779" y2="56.4883" stroke="#FCFCFC" stroke-linecap="round"/>
</svg>
