<svg width="134" height="117" viewBox="0 0 134 117" fill="none" xmlns="http://www.w3.org/2000/svg">
<circle cx="88" cy="71" r="4.5" fill="#FCFCFC"/>
<circle cx="109" cy="85" r="4.5" fill="#FCFCFC"/>
<circle cx="118" cy="71" r="4.5" fill="#FCFCFC"/>
<circle cx="129" cy="56" r="4.5" fill="#FCFCFC"/>
<path d="M118.5 74.5V103M118.5 116V103M118.5 103L129 93V60.5" stroke="#FCFCFC" stroke-width="2" stroke-linecap="round"/>
<path d="M91 111H72.2712M5 50V111H42M5 50H0.5V36.5M5 50H25L39.1864 36.5M10 8.5H0.5V36.5M10 8.5V29.5L25 16V8.25M10 8.5V0.5H25V8.25M25 8.25L111.5 8.5V22.5M0.5 36.5H39.1864M39.1864 36.5L56 20.5L72.2712 36.5M35 22.5H111.5M111.5 22.5V50H107.5M72.2712 36.5L86 50H107.5M72.2712 36.5H82.5M107.5 50V69M42 111V71H72.2712V91V111M42 111H72.2712" stroke="#FCFCFC" stroke-linecap="round"/>
</svg>
