<?xml version="1.0" encoding="utf-8"?>
<!-- Generator: Adobe Illustrator 24.3.0, SVG Export Plug-In . SVG Version: 6.00 Build 0)  -->
<svg version="1.1" id="Warstwa_1" xmlns="http://www.w3.org/2000/svg" xmlns:xlink="http://www.w3.org/1999/xlink" x="0px" y="0px"
	 viewBox="0 0 169.9 169.9" style="enable-background:new 0 0 169.9 169.9;" xml:space="preserve">
<style type="text/css">
	.st0{clip-path:url(#SVGID_2_);}
	.st1{fill:none;stroke:#C2A992;stroke-width:1.5;stroke-miterlimit:10;}
</style>
<g id="Warstwa_2_1_">
	<g id="Warstwa_1-2">
		<g id="piktogram-rudawa">
			<g>
				<defs>
					<rect id="SVGID_1_" x="0.8" y="0.7" width="168.4" height="168.4"/>
				</defs>
				<clipPath id="SVGID_2_">
					<use xlink:href="#SVGID_1_"  style="overflow:visible;"/>
				</clipPath>
				<g class="st0">
					<g id="rudawa">
						<path class="st1" d="M18.4,169.1c12.6-39.8,33-70.9,61-92.8c24.6-19.2,38.7-46.7,46.5-75.4"/>
						<path class="st1" d="M162.4,1c-8.8,38.3-26.8,76.9-61.3,103.8c-19.7,15.3-34.8,37-45.2,64.6"/>
						<path class="st1" d="M30.6,169.1c11.9-35.7,30.6-63.6,55.8-83.3c27.8-21.7,43.3-52.9,51.4-84.8"/>
						<path class="st1" d="M43.2,169.3c10-28.2,25.8-54.7,50.6-74C125,71,141.7,35.9,150.2,0.7"/>
					</g>
				</g>
			</g>
			<rect x="0.8" y="0.7" class="st1" width="168.4" height="168.4"/>
		</g>
	</g>
</g>
</svg>
